<svg
  version="1.1"
  id="Layer_1"
  xmlns="http://www.w3.org/2000/svg"
  xmlns:xlink="http://www.w3.org/1999/xlink"
  x="0px"
  y="0px"
  width="100%"
  viewBox="0 0 2048 2048"
  enable-background="new 0 0 2048 2048"
  xml:space="preserve"
>
  <path
    fill="#469AD7"
    opacity="1.000000"
    stroke="none"
    d="
M947.000000,1737.812622
	C698.402710,1737.812378 450.305450,1737.812378 200.704346,1737.812378
	C475.707520,1262.137695 750.043457,787.616943 1024.767456,312.425110
	C1026.134521,314.413116 1027.125977,315.664581 1027.916748,317.032135
	C1060.419678,373.245667 1092.874390,429.487183 1125.477417,485.642609
	C1127.177856,488.571472 1126.369507,490.483948 1124.980469,492.882202
	C1097.358887,540.569885 1069.760010,588.270691 1042.178101,635.981262
	C989.674133,726.801758 937.191589,817.634766 884.684875,908.453735
	C851.936279,965.097778 819.140869,1021.714783 786.401001,1078.363892
	C753.823792,1134.731567 721.315430,1191.139038 688.729370,1247.501587
	C657.474609,1301.561279 626.142334,1355.576294 594.874634,1409.628540
	C565.610779,1460.216431 536.385559,1510.826782 507.153046,1561.432861
	C506.345245,1562.831299 505.648254,1564.293701 504.379150,1566.722046
	C507.459198,1566.722046 509.701691,1566.722046 511.944153,1566.722046
	C900.940796,1566.721924 1289.937378,1566.722168 1678.934082,1566.721436
	C1701.100464,1566.721313 1723.267578,1566.791504 1745.432739,1566.629150
	C1749.040039,1566.602783 1751.087036,1567.707275 1752.913330,1570.880615
	C1783.894043,1624.709106 1815.000854,1678.465088 1846.072021,1732.241577
	C1846.889526,1733.656494 1847.621948,1735.120605 1849.064453,1737.812866
	C1547.885498,1737.812866 1247.692749,1737.812866 947.000000,1737.812622
z"
  />
  <path
    fill="#E57D3E"
    opacity="1.000000"
    stroke="none"
    d="
M1264.739746,1302.007324
	C1264.351929,1300.640381 1264.227539,1299.121094 1263.538574,1297.927979
	C1232.646118,1244.430298 1201.693115,1190.967773 1170.770996,1137.487305
	C1130.766602,1068.299438 1090.793091,999.093506 1050.743530,929.931763
	C1049.349976,927.525085 1049.104248,925.756775 1050.602661,923.177917
	C1076.366821,878.835022 1102.004761,834.418823 1127.682617,790.025696
	C1128.407593,788.772278 1129.267578,787.596924 1130.468628,785.771118
	C1256.765259,1004.225403 1382.730103,1222.105957 1509.076904,1440.646973
	C1256.361816,1440.646973 1004.420715,1440.646973 751.561340,1440.646973
	C777.580078,1395.551636 803.335022,1350.913452 829.618774,1305.909668
	C830.427551,1305.000610 830.707520,1304.457397 830.987427,1303.914185
	C830.987366,1303.914185 830.995972,1303.988037 831.374695,1303.914429
	C834.393555,1303.582397 837.033630,1303.098267 839.673828,1303.097534
	C979.443298,1303.058350 1119.212769,1303.064209 1258.982178,1303.013672
	C1260.901489,1303.012939 1262.820557,1302.357300 1264.739746,1302.007324
z"
  />
  <path
    fill="#C2886B"
    opacity="1.000000"
    stroke="none"
    d="
M1264.299316,1301.942383
	C1262.820557,1302.357300 1260.901489,1303.012939 1258.982178,1303.013672
	C1119.212769,1303.064209 979.443298,1303.058350 839.673828,1303.097534
	C837.033630,1303.098267 834.393555,1303.582397 831.337769,1303.918457
	C832.844666,1303.277466 834.765320,1301.938110 836.690063,1301.932251
	C876.325806,1301.812744 915.961914,1301.843994 955.598022,1301.847656
	C1058.351685,1301.856934 1161.105225,1301.867432 1264.299316,1301.942383
z"
  />
  <path
    fill="#C2886B"
    opacity="1.000000"
    stroke="none"
    d="
M830.711914,1304.064819
	C830.707520,1304.457397 830.427551,1305.000610 829.888672,1305.716797
	C829.898621,1305.331787 830.167480,1304.773560 830.711914,1304.064819
z"
  />
</svg>
